<?xml version="1.0" encoding="UTF-8"?><svg xmlns="http://www.w3.org/2000/svg" viewBox="0 0 416.98 468.88"><defs><style>.cls-1{fill:#fff;stroke:#fff;}.cls-1,.cls-2,.cls-3{stroke-miterlimit:10;stroke-width:20px;}.cls-2{fill:#58595b;}.cls-2,.cls-3{stroke:#58595b;}.cls-3{fill:none;}</style></defs><g id="Layer_1"><rect class="cls-3" x="10" y="10" width="334.94" height="398.97" rx="28.4" ry="28.4"/><path class="cls-2" d="M166.32,457.67l-130.08-47.2c-11.03-4-20.04-16.8-20.12-28.58L13.83,35.26c-.08-11.78,8.8-18.08,19.84-14.08l130.08,47.2c11.03,4,20.04,16.8,20.12,28.58l2.29,346.64c.08,11.78-8.8,18.08-19.84,14.08Z"/><rect class="cls-1" x="334.98" y="121.14" width="21.52" height="176.69"/></g><g id="Layer_2"><path class="cls-2" d="M228.78,213.11l71.24,93.81c3.48,4.58,10.79,2.12,10.79-3.63V115.68c0-5.75-7.31-8.21-10.79-3.63l-71.24,93.81c-1.63,2.15-1.63,5.12,0,7.26Z"/><rect class="cls-2" x="315" y="152.11" width="91.98" height="111.11" rx="8.87" ry="8.87"/></g></svg>