<?xml version="1.0" encoding="utf-8"?>
<!-- Generator: Adobe Illustrator 27.2.0, SVG Export Plug-In . SVG Version: 6.00 Build 0)  -->
<svg version="1.1" id="Layer_1" xmlns="http://www.w3.org/2000/svg" xmlns:xlink="http://www.w3.org/1999/xlink" x="0px" y="0px"
	 viewBox="0 0 512 512" style="enable-background:new 0 0 512 512;" xml:space="preserve">
<style type="text/css">
	.st0{fill:#E6E7E8;stroke:#BCBEC0;stroke-miterlimit:10;}
</style>
<path class="st0" d="M511.44,178.32c-5.32-56.93-47.46-93.19-70.48-113.01C364.19-0.75,271.55-0.33,253.87,0.06
	C225.16,0.7,146.44,3.66,79.96,64.63c-6.05,5.54-83.89,79.23-79.84,189.18c5.96,162.3,185.16,254.22,253.75,253.74
	c12.07-0.08,40.03-0.27,54.38-19.36c8.56-11.38,12.62-29.92,5.7-43.27c-6.05-11.67-15.15-9.1-24.33-22.07
	c-13.21-18.66-7.33-42.25-6.95-43.74c4.99-19.14,19.83-29.35,29.86-36.1c17.07-11.49,27.62-10.65,76.75-20.85
	c50.18-10.41,58.95-15.27,63.36-17.95c25.74-15.58,38.24-38.54,43.47-48.43C498.76,250.76,515.22,218.66,511.44,178.32z
	 M87.88,136.6c24.35,0,44.09,19.74,44.09,44.09c0,24.35-19.74,44.09-44.09,44.09c-24.35,0-44.09-19.74-44.09-44.09
	C43.79,156.33,63.53,136.6,87.88,136.6z M89,355.27c-24.35,0-44.09-19.74-44.09-44.09c0-24.35,19.74-44.09,44.09-44.09
	c24.35,0,44.09,19.74,44.09,44.09C133.09,335.54,113.35,355.27,89,355.27z M178.29,130.17c-24.34,0-44.08-19.74-44.08-44.09
	S153.95,42,178.29,42c24.35,0,44.09,19.74,44.09,44.09S202.64,130.17,178.29,130.17z M310.71,116.68
	c-24.35,0-44.09-19.74-44.09-44.09s19.74-44.09,44.09-44.09c24.35,0,44.09,19.74,44.09,44.09S335.06,116.68,310.71,116.68z
	 M418.28,189.85c-24.35,0-44.09-19.74-44.09-44.09s19.74-44.09,44.09-44.09c24.35,0,44.09,19.74,44.09,44.09
	S442.63,189.85,418.28,189.85z"/>
<path class="st0" d="M362.51,383.97"/>
<path class="st0" d="M566.37,429.97"/>
</svg>
