<?xml version="1.0" encoding="utf-8"?>
<!-- Generator: Adobe Illustrator 27.2.0, SVG Export Plug-In . SVG Version: 6.00 Build 0)  -->
<svg version="1.1" id="Layer_1" xmlns="http://www.w3.org/2000/svg" xmlns:xlink="http://www.w3.org/1999/xlink" x="0px" y="0px"
	 viewBox="0 0 512 512" style="enable-background:new 0 0 512 512;" xml:space="preserve">
<style type="text/css">
	.st0{fill:#FFFFFF;stroke:#BDBEC0;stroke-miterlimit:10;}
	.st1{fill:#6D6E71;stroke:#BDBEC0;stroke-miterlimit:10;}
	.st2{fill:#E6E7E7;stroke:#BDBEC0;stroke-miterlimit:10;}
</style>
<path class="st0" d="M502.97,230.39c0,4.48-0.17,8.93-0.49,13.34c-2.84,7.5-5.43,12.52-6.35,14.27
	c-5.23,9.89-17.73,32.85-43.47,48.43c-4.41,2.68-13.18,7.54-63.36,17.95c-49.13,10.2-59.68,9.36-76.75,20.85
	c-10.03,6.75-24.87,16.96-29.86,36.1c-0.38,1.49-6.26,25.08,6.95,43.74c4.08,5.77,8.15,8.47,11.93,10.7
	c-14.77,2.33-30,3.55-45.57,3.55c-136.4,0-246.97-93.54-246.97-208.93C9.03,115.01,119.6,21.46,256,21.46
	S502.97,115.01,502.97,230.39z"/>
<path class="st1" d="M511.46,180.54c-5.32-56.93-47.46-93.19-70.48-113.01C364.21,1.47,271.57,1.89,253.89,2.28
	c-28.71,0.64-107.43,3.6-173.91,64.57c-6.05,5.54-83.89,79.23-79.84,189.18C6.1,418.33,185.3,510.25,253.89,509.77
	c12.07-0.08,40.03-0.27,54.38-19.36c8.56-11.38,12.62-29.92,5.7-43.27c-3.36-6.48-7.66-8.57-12.4-11.37
	c-3.78-2.23-7.85-4.93-11.93-10.7c-13.21-18.66-7.33-42.25-6.95-43.74c4.99-19.14,19.83-29.35,29.86-36.1
	c17.07-11.49,27.62-10.65,76.75-20.85c50.18-10.41,58.95-15.27,63.36-17.95c25.74-15.58,38.24-38.54,43.47-48.43
	c0.92-1.75,3.51-6.77,6.35-14.27C507.78,229.66,513.93,206.85,511.46,180.54z M87.9,138.82c24.35,0,44.09,19.74,44.09,44.09
	c0,24.35-19.74,44.09-44.09,44.09c-24.35,0-44.09-19.74-44.09-44.09C43.81,158.55,63.55,138.82,87.9,138.82z M44.93,313.4
	c0-24.35,19.74-44.09,44.09-44.09c24.35,0,44.09,19.74,44.09,44.09c0,24.36-19.74,44.09-44.09,44.09
	C64.67,357.49,44.93,337.75,44.93,313.4z M178.31,132.39c-24.34,0-44.08-19.74-44.08-44.09s19.74-44.08,44.08-44.08
	c24.35,0,44.09,19.74,44.09,44.09C222.4,112.66,202.66,132.39,178.31,132.39z M310.73,118.9c-24.35,0-44.09-19.74-44.09-44.09
	c0-24.35,19.74-44.09,44.09-44.09c24.35,0,44.09,19.74,44.09,44.09C354.82,99.16,335.08,118.9,310.73,118.9z M418.3,192.07
	c-24.35,0-44.09-19.74-44.09-44.09s19.74-44.09,44.09-44.09c24.35,0,44.09,19.74,44.09,44.09S442.65,192.07,418.3,192.07z"/>
<path class="st2" d="M337.33,386.62"/>
<path class="st2" d="M541.19,432.62"/>
</svg>
