<?xml version="1.0" encoding="utf-8"?>
<!-- Generator: Adobe Illustrator 27.2.0, SVG Export Plug-In . SVG Version: 6.00 Build 0)  -->
<svg version="1.1" id="Layer_1" xmlns="http://www.w3.org/2000/svg" xmlns:xlink="http://www.w3.org/1999/xlink" x="0px" y="0px"
	 viewBox="0 0 512 512" style="enable-background:new 0 0 512 512;" xml:space="preserve">
<style type="text/css">
	.st0{fill:#FFFFFF;stroke:#FFFFFF;stroke-miterlimit:10;}
</style>
<path class="st0" d="M263.6,34.3L228.7,66l-33.1,30L191,72.7C94,103.3,33,196.4,51.9,292.6c9.3,47.5,36.6,87.7,74,115.6l-27.3,37.7
	C50.8,411.4,16,360.9,4.2,301c-23.7-120.7,54.7-237.5,178-273l-5.5-28l51.8,20.5L263.6,34.3z"/>
<path class="st0" d="M507.8,211.9c23.7,120.7-54.4,237.5-177.5,272.9l5.3,27.2l-52.8-17.9h0l-4.6-1.5l-38.8-13.2l36.6-30h0l3.1-2.5
	l37.6-30.8l4.7,24.1c96.7-30.5,157.6-123.5,138.7-219.7c-10-50.8-40.3-93.1-81.7-121.1l27.1-37.6
	C457.4,96.1,495.4,148.8,507.8,211.9z"/>
</svg>
