<?xml version="1.0" encoding="utf-8"?>
<!-- Generator: Adobe Illustrator 27.2.0, SVG Export Plug-In . SVG Version: 6.00 Build 0)  -->
<svg version="1.1" id="Layer_1" xmlns="http://www.w3.org/2000/svg" xmlns:xlink="http://www.w3.org/1999/xlink" x="0px" y="0px"
	 viewBox="0 0 512 512" style="enable-background:new 0 0 512 512;" xml:space="preserve">
<style type="text/css">
	.st0{fill:#FFFFFF;stroke:#FFFFFF;stroke-miterlimit:10;}
</style>
<path class="st0" d="M262.07,61.59l-27.62,26.39l-26.17,25.02l-3.61-19.39C127.95,119.05,79.7,196.6,94.63,276.73
	c7.38,39.6,28.93,73.06,58.57,96.29l-21.59,31.39C93.77,375.7,66.2,333.69,56.9,283.76C38.16,183.18,100.15,85.89,197.72,56.33
	l-4.34-23.32l40.96,17.05L262.07,61.59z"/>
<path class="st0" d="M455.23,209.55c18.74,100.59-43.06,197.83-140.4,227.35l4.22,22.63l-41.74-14.94l-0.01,0l-3.61-1.29
	l-30.71-10.98l28.98-25.01l0.01,0l2.42-2.09l29.76-25.68l3.74,20.07c76.53-25.4,124.64-102.92,109.71-183.05
	c-7.88-42.29-31.87-77.59-64.62-100.91l21.47-31.3C415.39,113.1,445.42,156.93,455.23,209.55z"/>
</svg>
